<svg xmlns="http://www.w3.org/2000/svg" width="80" height="70" fill="none">
    <path
        d="M36.25.09C45.117-.687 53 3.656 55.67 10.226c.813 2-.825 3.94-2.97 4.128l-8.743.767a48.585 48.585 0 0 0-8.115-1.128c-5.673-.306-11.22.383-16.295 1.921a2.707 2.707 0 0 1-.673-2.463C20.369 6.516 27.38.867 36.249.09ZM40.81 38.772C23.245 42.32 10.522 54.378 10.322 66.806c-.035 2.16 2.065 3.543 4.176 3.117l62.594-12.647c2.11-.427 3.514-2.517 2.648-4.495-4.98-11.382-21.364-17.558-38.93-14.01Z"
        fill="#111" />
    <path
        d="M41.632 38.613c10.095-1.87 19.744-.535 26.995 3.138.042.24.081.48.114.723.29 2.14-1.585 3.81-3.735 3.693L26.439 44.09c4.209-2.398 9.07-4.246 14.371-5.317l.822-.159Z"
        fill="#111" />
    <path
        d="M.094 38.774C3.234 26.052 18.195 16.96 35.634 17.9c14.825.799 27.093 8.613 31.523 18.916a38.816 38.816 0 0 0-.83-.314c-7.648-2.79-16.869-3.467-26.287-1.564-7.725 1.561-14.657 4.67-20.196 8.796l-16.431-.885c-2.15-.116-3.836-1.977-3.319-4.074Z"
        fill="#111" />
</svg>
