<svg xmlns="http://www.w3.org/2000/svg" width="121" height="32" fill="none">
    <path
        d="M16.659.041c4.075-.355 7.698 1.63 8.925 4.634.374.914-.379 1.801-1.365 1.887l-4.018.35a22.439 22.439 0 0 0-3.729-.515 21.962 21.962 0 0 0-7.489.878 1.233 1.233 0 0 1-.309-1.126c.687-3.17 3.91-5.753 7.985-6.108ZM18.755 17.724c-8.072 1.623-13.92 7.134-14.012 12.816-.016.988.95 1.62 1.92 1.425l28.765-5.782c.97-.195 1.615-1.15 1.217-2.055-2.289-5.203-9.818-8.026-17.89-6.404Z"
        fill="#111" />
    <path
        d="M19.133 17.652c4.639-.855 9.073-.245 12.405 1.434.02.11.038.22.053.33.133.979-.729 1.742-1.717 1.69l-17.724-.951c1.934-1.096 4.168-1.941 6.605-2.43l.378-.073Z"
        fill="#111" />
    <path
        d="M.043 17.725c1.443-5.816 8.319-9.972 16.333-9.543 6.813.365 12.451 3.938 14.486 8.648-.126-.05-.253-.097-.38-.144-3.515-1.275-7.753-1.585-12.081-.715-3.55.714-6.736 2.135-9.282 4.021l-7.55-.404c-.989-.053-1.763-.904-1.526-1.863ZM55.38 27.882c-1.673 0-3.22-.299-4.642-.896a11.586 11.586 0 0 1-3.702-2.503 11.563 11.563 0 0 1-2.447-3.77c-.586-1.443-.879-3.019-.879-4.728 0-1.71.283-3.286.847-4.728.586-1.463 1.402-2.72 2.447-3.77a11.095 11.095 0 0 1 3.734-2.473c1.422-.597 2.97-.896 4.642-.896 1.674 0 3.169.278 4.487.835 1.338.556 2.468 1.298 3.388 2.225.92.906 1.579 1.905 1.976 2.997l-3.827 1.761c-.44-1.153-1.182-2.1-2.228-2.843-1.045-.762-2.31-1.143-3.796-1.143-1.464 0-2.76.34-3.89 1.02-1.108.68-1.976 1.617-2.603 2.812-.607 1.195-.91 2.596-.91 4.203 0 1.606.303 3.018.91 4.233.627 1.195 1.495 2.132 2.603 2.812 1.13.68 2.426 1.02 3.89 1.02 1.485 0 2.75-.37 3.796-1.113 1.046-.762 1.789-1.72 2.228-2.873l3.827 1.761c-.397 1.092-1.056 2.101-1.976 3.028-.92.907-2.05 1.638-3.388 2.194-1.318.557-2.813.835-4.486.835ZM73.22 27.882c-1.192 0-2.228-.196-3.106-.587-.878-.392-1.558-.948-2.04-1.67-.48-.74-.72-1.596-.72-2.564 0-.927.209-1.751.627-2.472.418-.742 1.066-1.36 1.945-1.854.878-.495 1.987-.845 3.325-1.05l5.584-.897v3.09l-4.8.804c-.815.144-1.422.401-1.82.772-.397.371-.595.855-.595 1.453 0 .576.22 1.04.659 1.39.46.33 1.024.494 1.694.494.857 0 1.61-.175 2.258-.525a3.852 3.852 0 0 0 1.538-1.514c.376-.639.564-1.34.564-2.101v-4.326c0-.722-.293-1.319-.878-1.793-.565-.494-1.318-.742-2.259-.742-.878 0-1.662.237-2.353.711a3.98 3.98 0 0 0-1.474 1.824l-3.357-1.607a5.777 5.777 0 0 1 1.569-2.287 8.04 8.04 0 0 1 2.572-1.545c.983-.371 2.05-.556 3.2-.556 1.401 0 2.635.257 3.702.772 1.066.495 1.893 1.195 2.478 2.101.607.886.91 1.927.91 3.122V27.51h-3.89v-2.874l.878-.062a7.069 7.069 0 0 1-1.568 1.823 7.112 7.112 0 0 1-2.07 1.113c-.775.247-1.632.37-2.573.37ZM86.241 27.51V10.7h4.11v16.81h-4.11Zm0-18.695V4.49h4.11v4.326h-4.11ZM94.145 27.51V10.7h3.86v3.74l-.315-.557c.398-1.256 1.015-2.132 1.851-2.626.858-.495 1.883-.742 3.075-.742h1.004V14.1h-1.475c-1.171 0-2.112.36-2.823 1.081-.711.7-1.067 1.69-1.067 2.967v9.363h-4.11ZM105.879 27.51V10.7h3.859v3.307l-.314-.587c.397-1.01 1.046-1.772 1.945-2.287.92-.536 1.987-.803 3.2-.803 1.255 0 2.363.267 3.325.803a5.698 5.698 0 0 1 2.29 2.256c.544.947.816 2.05.816 3.306v10.816h-4.11v-9.858c0-.741-.146-1.38-.439-1.916a3.05 3.05 0 0 0-1.223-1.236c-.502-.309-1.098-.463-1.788-.463-.67 0-1.266.154-1.789.463-.523.289-.93.7-1.223 1.236-.293.536-.439 1.175-.439 1.916v9.858h-4.11Z"
        fill="#111" />
</svg>
