<svg xmlns="http://www.w3.org/2000/svg" width="96" height="96" viewBox="0 0 96 96" fill="none"><rect width="96" height="96" fill="white"/><path d="M44.2495 13.0898C53.1179 12.3126 61.0012 16.6564 63.6714 23.2261C64.4842 25.2265 62.8462 27.1665 60.701 27.3545L51.9577 28.1205C49.3337 27.5261 46.6162 27.142 43.8432 26.9926C38.17 26.6869 32.6231 27.3764 27.548 28.9143C26.9621 28.2789 26.6666 27.4159 26.8746 26.4505C28.3688 19.516 35.3813 13.8671 44.2495 13.0898Z" fill="#111111"/><path d="M48.8103 51.7718C31.2451 55.3208 18.522 67.3777 18.3216 79.8064C18.2868 81.9665 20.387 83.3493 22.4982 82.9228L85.0918 70.276C87.2029 69.8495 88.6058 67.7588 87.7402 65.7807C82.7593 54.3989 66.3756 48.2228 48.8103 51.7718Z" fill="#111111"/><path d="M49.6323 51.6131C59.7269 49.7433 69.376 51.0781 76.6275 54.7506C76.6687 54.9908 76.7081 55.2316 76.7409 55.4736C77.0314 57.6141 75.1564 59.2833 73.006 59.1674L34.4392 57.0889C38.6476 54.691 43.5083 52.8431 48.8103 51.7718L49.6323 51.6131Z" fill="#111111"/><path d="M8.09412 51.7743C11.2334 39.0517 26.1953 29.9588 43.6343 30.8987C58.4585 31.6976 70.7275 39.5125 75.1566 49.815C74.8819 49.7076 74.6051 49.6029 74.3269 49.5014C66.679 46.7106 57.4584 46.0342 48.0399 47.9371C40.3152 49.498 33.3834 52.6073 27.8437 56.7332L11.4128 55.8481C9.26249 55.7322 7.57686 53.8713 8.09412 51.7743Z" fill="#111111"/></svg>