<svg width="80" height="70" viewBox="0 0 80 70" fill="none" xmlns="http://www.w3.org/2000/svg">
<path d="M36.2495 0.0897701C45.1179 -0.687421 53.0012 3.65642 55.6714 10.2261C56.4842 12.2265 54.8462 14.1665 52.701 14.3545L43.9577 15.1205C41.3337 14.5261 38.6162 14.142 35.8432 13.9926C30.17 13.6869 24.6231 14.3764 19.548 15.9143C18.9621 15.2789 18.6666 14.4159 18.8746 13.4505C20.3688 6.51601 27.3813 0.867051 36.2495 0.0897701Z" fill="#111111"/>
<path d="M40.8103 38.7718C23.2451 42.3208 10.522 54.3777 10.3216 66.8064C10.2868 68.9665 12.387 70.3493 14.4982 69.9228L77.0918 57.276C79.2029 56.8495 80.6058 54.7588 79.7402 52.7807C74.7593 41.3989 58.3756 35.2228 40.8103 38.7718Z" fill="#111111"/>
<path d="M41.6323 38.6131C51.7269 36.7433 61.376 38.0781 68.6275 41.7506C68.6687 41.9908 68.7081 42.2316 68.7409 42.4736C69.0314 44.6141 67.1564 46.2833 65.006 46.1674L26.4392 44.0889C30.6476 41.691 35.5083 39.8431 40.8103 38.7718L41.6323 38.6131Z" fill="#111111"/>
<path d="M0.0941225 38.7743C3.23339 26.0517 18.1953 16.9588 35.6343 17.8987C50.4585 18.6976 62.7275 26.5125 67.1566 36.815C66.8819 36.7076 66.6051 36.6029 66.3269 36.5014C58.679 33.7106 49.4584 33.0342 40.0399 34.9371C32.3152 36.498 25.3834 39.6073 19.8437 43.7332L3.41282 42.8481C1.26249 42.7322 -0.423139 40.8713 0.0941225 38.7743Z" fill="#111111"/>
</svg>
